<?xml version="1.0" encoding="utf-8"?>
<!-- Generator: Adobe Illustrator 27.5.0, SVG Export Plug-In . SVG Version: 6.00 Build 0)  -->
<svg version="1.1" xmlns="http://www.w3.org/2000/svg" xmlns:xlink="http://www.w3.org/1999/xlink" x="0px" y="0px"
	 viewBox="0 0 2200 2200" style="enable-background:new 0 0 2200 2200;" xml:space="preserve">
<g id="background">
	<rect style="fill:#FFFFFF;" width="2200" height="2200"/>
</g>
<g id="Objects">
	<g>
		<g>
			<path style="fill:#3A546B;" d="M1085.986,541.519h28.028c10.639,0,19.264-8.625,19.264-19.264v-70.763
				c0-10.639-8.625-19.264-19.264-19.264h-28.028c-10.639,0-19.264,8.625-19.264,19.264v70.763
				C1066.722,532.894,1075.347,541.519,1085.986,541.519z"/>
			<path style="fill:#3A546B;" d="M603.287,1052.246v-28.028c0-10.639-8.625-19.264-19.264-19.264H513.26
				c-10.639,0-19.264,8.625-19.264,19.264v28.028c0,10.639,8.625,19.264,19.264,19.264h70.763
				C594.662,1071.51,603.287,1062.885,603.287,1052.246z"/>
			<path style="fill:#3A546B;" d="M1114.014,1534.945h-28.028c-10.639,0-19.264,8.625-19.264,19.264v70.763
				c0,10.639,8.625,19.264,19.264,19.264h28.028c10.639,0,19.264-8.625,19.264-19.264v-70.763
				C1133.278,1543.57,1124.653,1534.945,1114.014,1534.945z"/>
			<path style="fill:#3A546B;" d="M1686.74,1004.954h-70.763c-10.639,0-19.264,8.625-19.264,19.264v28.028
				c0,10.639,8.625,19.264,19.264,19.264h70.763c10.639,0,19.264-8.625,19.264-19.264v-28.028
				C1706.004,1013.579,1697.38,1004.954,1686.74,1004.954z"/>
			
				<ellipse transform="matrix(0.7624 -0.6471 0.6471 0.7624 -167.0038 666.6234)" style="fill:#3A546B;" cx="824.321" cy="560.741" rx="28.779" ry="28.779"/>
			
				<ellipse transform="matrix(0.9429 -0.3331 0.3331 0.9429 -218.4328 250.8685)" style="fill:#3A546B;" cx="622.509" cy="762.553" rx="28.779" ry="28.779"/>
			
				<ellipse transform="matrix(0.0926 -0.9957 0.9957 0.0926 -743.4021 1812.0746)" style="fill:#3A546B;" cx="622.509" cy="1313.911" rx="28.779" ry="28.779"/>
			
				<ellipse transform="matrix(0.7071 -0.7071 0.7071 0.7071 -830.3398 1026.8276)" style="fill:#3A546B;" cx="824.321" cy="1515.723" rx="28.779" ry="28.779"/>
			
				<ellipse transform="matrix(0.0388 -0.9992 0.9992 0.0388 -192.2988 2831.5315)" style="fill:#3A546B;" cx="1375.679" cy="1515.723" rx="28.779" ry="28.779"/>
			<circle style="fill:#3A546B;" cx="1577.491" cy="1313.911" r="28.779"/>
			
				<ellipse transform="matrix(0.7071 -0.7071 0.7071 0.7071 -77.1698 1338.8008)" style="fill:#3A546B;" cx="1577.491" cy="762.553" rx="28.779" ry="28.779"/>
			
				<ellipse transform="matrix(0.937 -0.3493 0.3493 0.937 -109.2125 515.7909)" style="fill:#3A546B;" cx="1375.679" cy="560.741" rx="28.779" ry="28.779"/>
			<path style="fill:#3A546B;" d="M1188.784,1025.794c-3.987-28.596-21.509-52.917-45.87-66.255
				c-1.701-174.214-9.657-379.495-42.914-379.495c-32.938,0-41.11,205.264-42.883,379.477c-6.423,3.514-12.37,7.792-17.721,12.709
				c-64.934-17.712-89.368-9.253-95.822,8.554c-6.47,17.871,5.004,37.501,67.323,67.335c3.307,30.005,21.478,55.595,46.969,69.226
				c4.562,107.132,21.694,125.717,42.134,125.717c20.44,0,37.573-18.575,42.139-125.72c5.514-2.949,10.685-6.458,15.438-10.45
				c138.966,51.27,246.873,80.862,258.098,49.88C1426.757,1126.2,1326.103,1079.147,1188.784,1025.794z M1100,990.616
				c26.255,0,47.616,21.36,47.616,47.616c0,26.255-21.36,47.616-47.616,47.616s-47.616-21.36-47.616-47.616
				C1052.384,1011.977,1073.745,990.616,1100,990.616z"/>
			<path style="fill:#3A546B;" d="M1100,1809.15c-104.055,0-205.019-20.389-300.089-60.6
				c-91.805-38.83-174.246-94.411-245.033-165.196c-70.786-70.786-126.367-153.228-165.197-245.032
				c-40.211-95.07-60.6-196.034-60.6-300.089c0-104.055,20.389-205.019,60.6-300.089c38.83-91.805,94.41-174.246,165.197-245.033
				c70.786-70.787,153.227-126.367,245.033-165.197c95.07-40.211,196.034-60.6,300.089-60.6s205.019,20.389,300.089,60.6
				c91.805,38.83,174.246,94.41,245.032,165.197c70.786,70.786,126.366,153.227,165.196,245.033
				c40.211,95.069,60.6,196.033,60.6,300.089c0,104.055-20.389,205.019-60.6,300.089c-38.83,91.805-94.411,174.246-165.196,245.032
				c-70.786,70.786-153.228,126.366-245.032,165.196C1305.019,1788.761,1204.055,1809.15,1100,1809.15z M1100,350.3
				c-92.888,0-182.977,18.183-267.762,54.044c-81.913,34.647-155.488,84.255-218.68,147.447
				c-63.192,63.192-112.8,136.766-147.447,218.68c-35.861,84.785-54.044,174.873-54.044,267.761
				c0,92.888,18.183,182.977,54.044,267.762c34.646,81.913,84.255,155.488,147.447,218.68
				c63.192,63.192,136.766,112.8,218.68,147.446c84.785,35.862,174.874,54.044,267.762,54.044s182.977-18.183,267.762-54.044
				c81.913-34.646,155.488-84.254,218.68-147.446c63.192-63.192,112.8-136.766,147.446-218.68
				c35.862-84.785,54.044-174.874,54.044-267.762c0-92.889-18.183-182.977-54.044-267.761
				c-34.646-81.914-84.254-155.488-147.446-218.68c-63.192-63.192-136.766-112.8-218.68-147.447
				C1282.977,368.483,1192.888,350.3,1100,350.3z"/>
		</g>
		<ellipse style="fill:#CAD5DD;" cx="1100" cy="1900.787" rx="527.356" ry="31.899"/>
	</g>
</g>
</svg>
